<?xml version="1.0" encoding="UTF-8"?>
<svg width="700pt" height="700pt" version="1.1" viewBox="0 0 700 700" xmlns="http://www.w3.org/2000/svg">
 <g>
  <path d="m395.53 302.73c0 25.145-20.383 45.531-45.527 45.531s-45.527-20.387-45.527-45.531 20.383-45.527 45.527-45.527 45.527 20.383 45.527 45.527"/>
  <path d="m532 166.15h-54.375l-38.863-78.344c-3.8672-7.7305-11.816-12.656-20.496-12.543h-136.47c-8.5664 0-16.465 4.8164-20.273 12.543l-39.312 78.344h-54.207c-24.922 0-45.527 20.551-45.527 45.527v227.53c0 25.145 20.441 45.527 45.527 45.527h364c25.145 0 45.527-20.328 45.527-45.527v-227.47c0-25.086-20.383-45.582-45.527-45.582zm-182 45.582c50.289 0 91 40.824 91 91.055 0 50.234-40.711 90.891-91 90.891-50.176 0-91-40.656-91-90.887 0-50.234 40.824-91.059 91-91.059z"/>
 </g>
</svg>
