<?xml version="1.0" encoding="UTF-8"?>
<svg width="700pt" height="700pt" version="1.1" viewBox="0 0 700 700" xmlns="http://www.w3.org/2000/svg" xmlns:xlink="http://www.w3.org/1999/xlink">
 <defs>
  <symbol id="s" overflow="visible">
   <path d="m0.35938-0.03125c-0.023437 0.011719-0.042969 0.023438-0.0625 0.03125-0.023437 0.0078125-0.042969 0.015625-0.0625 0.015625-0.0625 0-0.11719-0.015625-0.15625-0.046875-0.03125-0.039062-0.046875-0.09375-0.046875-0.15625s0.015625-0.10938 0.046875-0.14062c0.039063-0.039063 0.09375-0.0625 0.15625-0.0625 0.019531 0 0.039063 0.007813 0.0625 0.015625 0.019531 0 0.039063 0.007812 0.0625 0.015625v0.078125c-0.023437-0.019531-0.042969-0.03125-0.0625-0.03125-0.011719-0.007812-0.03125-0.015625-0.0625-0.015625s-0.058594 0.015625-0.078125 0.046875c-0.023438 0.023438-0.03125 0.054688-0.03125 0.09375 0 0.042969 0.007812 0.074219 0.03125 0.09375 0.019531 0.023438 0.046875 0.03125 0.078125 0.03125h0.0625c0.019531-0.0078125 0.039063-0.019531 0.0625-0.03125z"/>
  </symbol>
  <symbol id="d" overflow="visible">
   <path d="m0.25-0.20312c0-0.007813-0.007812-0.015625-0.015625-0.015625h-0.015625c-0.03125 0-0.054688 0.011719-0.0625 0.03125-0.011719 0.011719-0.015625 0.03125-0.015625 0.0625v0.125h-0.09375v-0.29688h0.09375v0.0625c0.007813-0.03125 0.019531-0.046875 0.03125-0.046875 0.019531-0.007812 0.039063-0.015625 0.0625-0.015625h0.015625z"/>
  </symbol>
  <symbol id="a" overflow="visible">
   <path d="m0.32812-0.15625v0.046875h-0.21875c0.007813 0.023438 0.019531 0.039062 0.03125 0.046875h0.0625 0.046875c0.03125-0.0078125 0.054688-0.019531 0.078125-0.03125v0.078125c-0.023437 0-0.046875 0.0078125-0.078125 0.015625-0.023438 0.0078125-0.042969 0.015625-0.0625 0.015625-0.054688 0-0.09375-0.015625-0.125-0.046875-0.023438-0.03125-0.03125-0.066406-0.03125-0.10938 0-0.050781 0.0078125-0.085937 0.03125-0.10938 0.03125-0.03125 0.070312-0.046875 0.125-0.046875 0.039062 0 0.070312 0.015625 0.09375 0.046875 0.03125 0.023438 0.046875 0.054688 0.046875 0.09375zm-0.09375-0.015625c0-0.019531-0.007813-0.035156-0.015625-0.046875-0.011719-0.007812-0.023438-0.015625-0.03125-0.015625-0.023438 0-0.039062 0.007813-0.046875 0.015625-0.011719 0.011719-0.023437 0.027344-0.03125 0.046875z"/>
  </symbol>
  <symbol id="j" overflow="visible">
   <path d="m0.17188-0.125c-0.011719 0-0.027344 0.007812-0.046875 0.015625-0.011719 0-0.015625 0.007813-0.015625 0.015625 0 0.011719 0.003906 0.023438 0.015625 0.03125h0.03125c0.019531 0 0.035156-0.0039062 0.046875-0.015625 0.007813-0.0078125 0.015625-0.019531 0.015625-0.03125v-0.015625zm0.14062-0.046875v0.17188h-0.09375v-0.046875c-0.011719 0.023438-0.027344 0.039062-0.046875 0.046875-0.011719 0.0078125-0.027344 0.015625-0.046875 0.015625-0.03125 0-0.058594-0.011719-0.078125-0.03125-0.011719-0.019531-0.015625-0.046875-0.015625-0.078125s0.0078125-0.050781 0.03125-0.0625c0.019531-0.019531 0.054688-0.03125 0.10938-0.03125h0.046875c0-0.019531-0.007812-0.03125-0.015625-0.03125-0.011719-0.007812-0.027344-0.015625-0.046875-0.015625-0.023438 0-0.042969 0.007813-0.0625 0.015625h-0.046875v-0.0625c0.019531-0.007812 0.039062-0.015625 0.0625-0.015625h0.0625c0.050781 0 0.085937 0.011719 0.10938 0.03125 0.019531 0.023437 0.03125 0.054687 0.03125 0.09375z"/>
  </symbol>
  <symbol id="c" overflow="visible">
   <path d="m0.15625-0.375v0.078125h0.078125v0.078125h-0.078125v0.125 0.03125h0.03125 0.046875v0.0625h-0.078125c-0.042969 0-0.074219-0.0039062-0.09375-0.015625-0.011719-0.019531-0.015625-0.046875-0.015625-0.078125v-0.125h-0.03125v-0.078125h0.03125v-0.078125z"/>
  </symbol>
  <symbol id="i" overflow="visible">
   <path d="m0.23438-0.25v-0.15625h0.09375v0.40625h-0.09375v-0.046875c-0.011719 0.023438-0.027344 0.039062-0.046875 0.046875-0.011719 0.0078125-0.023438 0.015625-0.03125 0.015625-0.042969 0-0.074219-0.015625-0.09375-0.046875-0.023438-0.03125-0.03125-0.066406-0.03125-0.10938 0-0.050781 0.0078125-0.085937 0.03125-0.10938 0.019531-0.03125 0.050781-0.046875 0.09375-0.046875 0.007812 0 0.019531 0.007813 0.03125 0.015625 0.019531 0 0.035156 0.011719 0.046875 0.03125zm-0.046875 0.1875c0.007812 0 0.019531-0.0039062 0.03125-0.015625 0.007812-0.0078125 0.015625-0.03125 0.015625-0.0625s-0.007813-0.050781-0.015625-0.0625c-0.011719-0.019531-0.023438-0.03125-0.03125-0.03125-0.023438 0-0.042969 0.011719-0.0625 0.03125-0.011719 0.011719-0.015625 0.03125-0.015625 0.0625s0.003906 0.054688 0.015625 0.0625c0.019531 0.011719 0.039062 0.015625 0.0625 0.015625z"/>
  </symbol>
  <symbol id="h" overflow="visible">
   <path d="m0.20312-0.0625c0.019531 0 0.03125-0.0039062 0.03125-0.015625 0.007813-0.0078125 0.015625-0.03125 0.015625-0.0625s-0.007812-0.050781-0.015625-0.0625c0-0.019531-0.011719-0.03125-0.03125-0.03125-0.023437 0-0.039063 0.011719-0.046875 0.03125-0.011719 0.011719-0.015625 0.03125-0.015625 0.0625 0 0.023437 0.003906 0.042969 0.015625 0.0625 0.007812 0.011719 0.023438 0.015625 0.046875 0.015625zm-0.0625-0.1875c0.007813-0.019531 0.019531-0.03125 0.03125-0.03125 0.019531-0.007812 0.039063-0.015625 0.0625-0.015625 0.039063 0 0.070313 0.015625 0.09375 0.046875 0.019531 0.023438 0.03125 0.058594 0.03125 0.10938 0 0.042969-0.011719 0.078125-0.03125 0.10938-0.023437 0.03125-0.054687 0.046875-0.09375 0.046875-0.023437 0-0.042969-0.0078125-0.0625-0.015625-0.011719-0.0078125-0.023437-0.023438-0.03125-0.046875v0.046875h-0.09375v-0.40625h0.09375z"/>
  </symbol>
  <symbol id="g" overflow="visible">
   <path d="m0.015625-0.29688h0.078125l0.078125 0.20312 0.0625-0.20312h0.10938l-0.125 0.32812c-0.011719 0.03125-0.027344 0.050781-0.046875 0.0625-0.011719 0.007812-0.03125 0.015625-0.0625 0.015625h-0.0625v-0.0625h0.03125 0.03125c0.007813 0 0.015625-0.011719 0.015625-0.03125z"/>
  </symbol>
  <symbol id="e" overflow="visible">
   <path d="m0.046875-0.29688h0.09375v0.28125c0 0.039062-0.011719 0.070312-0.03125 0.09375-0.023438 0.019531-0.046875 0.03125-0.078125 0.03125h-0.046875v-0.0625h0.015625c0.019531 0 0.03125-0.0078125 0.03125-0.015625 0.0078125 0 0.015625-0.015625 0.015625-0.046875zm0-0.10938h0.09375v0.078125h-0.09375z"/>
  </symbol>
  <symbol id="b" overflow="visible">
   <path d="m0.1875-0.23438c-0.023438 0-0.042969 0.011719-0.0625 0.03125-0.011719 0.011719-0.015625 0.03125-0.015625 0.0625s0.003906 0.054688 0.015625 0.0625c0.019531 0.011719 0.039062 0.015625 0.0625 0.015625 0.019531 0 0.035156-0.0039062 0.046875-0.015625 0.007813-0.0078125 0.015625-0.03125 0.015625-0.0625s-0.007812-0.050781-0.015625-0.0625c-0.011719-0.019531-0.027344-0.03125-0.046875-0.03125zm0-0.0625c0.039062 0 0.078125 0.015625 0.10938 0.046875 0.03125 0.023438 0.046875 0.058594 0.046875 0.10938 0 0.042969-0.015625 0.078125-0.046875 0.10938s-0.070313 0.046875-0.10938 0.046875c-0.054688 0-0.09375-0.015625-0.125-0.046875-0.023438-0.03125-0.03125-0.066406-0.03125-0.10938 0-0.050781 0.0078125-0.085937 0.03125-0.10938 0.03125-0.03125 0.070312-0.046875 0.125-0.046875z"/>
  </symbol>
  <symbol id="f" overflow="visible">
   <path d="m0.34375-0.17188v0.17188h-0.10938v-0.125-0.0625-0.015625c0-0.007813-0.007813-0.015625-0.015625-0.015625h-0.015625c-0.023437 0-0.039063 0.007812-0.046875 0.015625-0.011719 0.011719-0.015625 0.03125-0.015625 0.0625v0.14062h-0.09375v-0.29688h0.09375v0.046875c0.007813-0.019531 0.019531-0.03125 0.03125-0.03125 0.019531-0.007812 0.039063-0.015625 0.0625-0.015625 0.03125 0 0.054687 0.011719 0.078125 0.03125 0.019531 0.023437 0.03125 0.054687 0.03125 0.09375z"/>
  </symbol>
  <symbol id="r" overflow="visible">
   <path d="m0.046875-0.29688h0.09375v0.29688h-0.09375zm0-0.10938h0.09375v0.078125h-0.09375z"/>
  </symbol>
  <symbol id="q" overflow="visible">
   <path d="m0.23438-0.40625v0.0625h-0.046875c-0.011719 0-0.023438 0.007812-0.03125 0.015625v0.015625 0.015625h0.078125v0.078125h-0.078125v0.21875h-0.09375v-0.21875h-0.046875v-0.078125h0.046875v-0.015625c0-0.03125 0.0039062-0.050781 0.015625-0.0625 0.019531-0.019531 0.050781-0.03125 0.09375-0.03125z"/>
  </symbol>
  <symbol id="p" overflow="visible">
   <path d="m0.3125-0.23438c0.007812-0.019531 0.019531-0.035156 0.03125-0.046875 0.019531-0.007812 0.039062-0.015625 0.0625-0.015625 0.03125 0 0.054688 0.011719 0.078125 0.03125 0.019531 0.023437 0.03125 0.054687 0.03125 0.09375v0.17188h-0.09375v-0.15625-0.015625c0-0.019531-0.007813-0.03125-0.015625-0.03125-0.011719-0.007813-0.023438-0.015625-0.03125-0.015625-0.011719 0-0.023438 0.007812-0.03125 0.015625-0.011719 0.011719-0.015625 0.03125-0.015625 0.0625v0.14062h-0.09375v-0.15625c0-0.03125-0.007813-0.046875-0.015625-0.046875 0-0.007813-0.011719-0.015625-0.03125-0.015625-0.011719 0-0.023438 0.007812-0.03125 0.015625-0.011719 0.011719-0.015625 0.03125-0.015625 0.0625v0.14062h-0.09375v-0.29688h0.09375v0.046875c0.007813-0.019531 0.019531-0.03125 0.03125-0.03125 0.019531-0.007812 0.035156-0.015625 0.046875-0.015625 0.019531 0 0.035156 0.007813 0.046875 0.015625 0.019531 0.011719 0.035156 0.027344 0.046875 0.046875z"/>
  </symbol>
  <symbol id="o" overflow="visible">
   <path d="m0.34375-0.17188v0.17188h-0.10938v-0.125-0.0625-0.015625c0-0.007813-0.007813-0.015625-0.015625-0.015625h-0.015625c-0.023437 0-0.039063 0.007812-0.046875 0.015625-0.011719 0.011719-0.015625 0.03125-0.015625 0.0625v0.14062h-0.09375v-0.40625h0.09375v0.15625c0.007813-0.019531 0.019531-0.03125 0.03125-0.03125 0.019531-0.007812 0.039063-0.015625 0.0625-0.015625 0.03125 0 0.054687 0.011719 0.078125 0.03125 0.019531 0.023437 0.03125 0.054687 0.03125 0.09375z"/>
  </symbol>
  <symbol id="n" overflow="visible">
   <path d="m0.046875-0.39062h0.10938l0.14062 0.26562v-0.26562h0.09375v0.39062h-0.10938l-0.14062-0.26562v0.26562h-0.09375z"/>
  </symbol>
  <symbol id="m" overflow="visible">
   <path d="m0.046875-0.10938v-0.1875h0.078125v0.03125 0.0625 0.046875 0.0625c0.007812 0 0.015625 0.0078125 0.015625 0.015625 0.007813 0 0.015625 0.0078125 0.015625 0.015625h0.03125c0.007812 0 0.019531-0.0039062 0.03125-0.015625 0.007812-0.019531 0.015625-0.046875 0.015625-0.078125v-0.14062h0.09375v0.29688h-0.09375v-0.046875c-0.011719 0.023438-0.027344 0.039062-0.046875 0.046875-0.011719 0.0078125-0.027344 0.015625-0.046875 0.015625-0.03125 0-0.058594-0.011719-0.078125-0.03125-0.011719-0.03125-0.015625-0.0625-0.015625-0.09375z"/>
  </symbol>
  <symbol id="l" overflow="visible">
   <path d="m0.046875-0.39062h0.17188c0.050781 0 0.085938 0.011719 0.10938 0.03125 0.019531 0.023437 0.03125 0.058594 0.03125 0.10938 0 0.03125-0.011719 0.0625-0.03125 0.09375-0.023437 0.023438-0.058594 0.03125-0.10938 0.03125h-0.0625v0.125h-0.10938zm0.10938 0.078125v0.10938h0.046875c0.019531 0 0.035156-0.003906 0.046875-0.015625 0.007812-0.007812 0.015625-0.019531 0.015625-0.03125 0-0.03125-0.007813-0.046875-0.015625-0.046875-0.011719-0.007813-0.027344-0.015625-0.046875-0.015625z"/>
  </symbol>
  <symbol id="k" overflow="visible">
   <path d="m0.28125-0.28125v0.078125c-0.023438-0.007813-0.039062-0.015625-0.046875-0.015625-0.011719-0.007812-0.023437-0.015625-0.03125-0.015625-0.023437 0-0.042969 0.011719-0.0625 0.03125-0.023437 0.011719-0.03125 0.03125-0.03125 0.0625 0 0.023437 0.007813 0.042969 0.03125 0.0625 0.019531 0.011719 0.039063 0.015625 0.0625 0.015625h0.03125c0.019531-0.0078125 0.035156-0.015625 0.046875-0.015625v0.0625c-0.023438 0.011719-0.039062 0.015625-0.046875 0.015625-0.011719 0.0078125-0.027344 0.015625-0.046875 0.015625-0.054688 0-0.09375-0.015625-0.125-0.046875-0.023438-0.03125-0.03125-0.066406-0.03125-0.10938 0-0.050781 0.0078125-0.085937 0.03125-0.10938 0.03125-0.03125 0.070312-0.046875 0.125-0.046875h0.046875c0.007813 0 0.023437 0.007813 0.046875 0.015625z"/>
  </symbol>
 </defs>
 <g>
  <path d="m253.4 373.91-158.7-157.64c-5.4141-5.4141-14.227-5.3086-19.531 0l-71.125 71.551c-5.4141 5.4141-5.4141 14.227 0 19.641 80.043 79.512 159.98 159.02 240.02 238.43 5.4141 5.4141 14.227 5.4141 19.641 0l432.38-434.39c5.3086-5.4141 5.3086-14.227-0.10547-19.641l-71.551-71.02c-5.4141-5.4141-14.227-5.4141-19.641 0l-351.38 353.08z"/>
  <use y="551.511719" xlink:href="#s"/>
  <use x="0.390625" y="551.511719" xlink:href="#d"/>
  <use x="0.652344" y="551.511719" xlink:href="#a"/>
  <use x="1.011719" y="551.511719" xlink:href="#j"/>
  <use x="1.371094" y="551.511719" xlink:href="#c"/>
  <use x="1.625" y="551.511719" xlink:href="#a"/>
  <use x="1.984375" y="551.511719" xlink:href="#i"/>
  <use x="2.546875" y="551.511719" xlink:href="#h"/>
  <use x="2.929688" y="551.511719" xlink:href="#g"/>
  <use x="3.457031" y="551.511719" xlink:href="#e"/>
  <use x="3.640625" y="551.511719" xlink:href="#b"/>
  <use x="4.003906" y="551.511719" xlink:href="#f"/>
  <use x="4.382812" y="551.511719" xlink:href="#r"/>
  <use y="552.042969" xlink:href="#q"/>
  <use x="0.230469" y="552.042969" xlink:href="#d"/>
  <use x="0.492188" y="552.042969" xlink:href="#b"/>
  <use x="0.855469" y="552.042969" xlink:href="#p"/>
  <use x="1.59375" y="552.042969" xlink:href="#c"/>
  <use x="1.847656" y="552.042969" xlink:href="#o"/>
  <use x="2.226562" y="552.042969" xlink:href="#a"/>
  <use x="2.773438" y="552.042969" xlink:href="#n"/>
  <use x="3.214844" y="552.042969" xlink:href="#b"/>
  <use x="3.582031" y="552.042969" xlink:href="#m"/>
  <use x="3.957031" y="552.042969" xlink:href="#f"/>
  <use x="4.519531" y="552.042969" xlink:href="#l"/>
  <use x="4.910156" y="552.042969" xlink:href="#d"/>
  <use x="5.171875" y="552.042969" xlink:href="#b"/>
  <use x="5.535156" y="552.042969" xlink:href="#e"/>
  <use x="5.71875" y="552.042969" xlink:href="#a"/>
  <use x="6.078125" y="552.042969" xlink:href="#k"/>
  <use x="6.394531" y="552.042969" xlink:href="#c"/>
 </g>
</svg>
