<svg width="150" height="151" viewBox="0 0 150 151" fill="none" xmlns="http://www.w3.org/2000/svg">
<path fill-rule="evenodd" clip-rule="evenodd" d="M114.997 108.435L147.864 79.6775C150.462 77.4048 150.725 73.4559 148.452 70.859C148.27 70.6497 148.073 70.453 147.864 70.2699L114.796 41.3385C112.313 39.1663 108.569 39.2981 106.245 41.6398L106.212 41.6722C104.025 43.8758 104.038 47.4366 106.243 49.6244C106.31 49.6914 106.379 49.7563 106.449 49.8191L127.524 68.724H43.7644C40.3125 68.724 37.5136 71.5229 37.5136 74.9748C37.5136 78.4267 40.3125 81.2245 43.7644 81.2245H127.524L106.731 99.238C104.203 101.428 103.929 105.252 106.119 107.78C106.15 107.816 106.181 107.851 106.212 107.886L106.254 107.932C108.545 110.455 112.433 110.678 114.997 108.434L114.997 108.435ZM93.7861 31.2512C90.3331 31.2512 87.5342 28.4513 87.5342 24.9983V12.5011H18.7534C15.3015 12.5011 12.5026 15.2989 12.5026 18.7508V131.252C12.5026 134.703 15.3015 137.501 18.7534 137.501H87.5342V125.004C87.5342 121.551 90.3331 118.751 93.7861 118.751C97.2401 118.751 100.039 121.551 100.039 125.004V137.501C99.9992 143.752 93.7496 150.002 87.5342 150.002H12.5042C6.25241 150.002 -0.000488281 143.752 -0.000488281 137.501V12.5022C-0.000488281 6.2514 6.25241 0.0017128 12.5042 0.0017128H87.4994C93.7491 0.0017128 99.9988 6.38104 99.9988 12.5022L100.026 24.9994C100.032 28.4449 97.2448 31.2448 93.7993 31.2523H93.7857L93.7861 31.2512Z" fill="black"/>
</svg>
