<svg width="110" height="151" viewBox="0 0 110 151" fill="none" xmlns="http://www.w3.org/2000/svg">
<path d="M54.8763 0.550003C24.7067 0.550003 0.259033 25.01 0.259033 55.1673C0.259033 77.472 30.1352 123.354 45.6928 145.743C50.1423 152.152 59.6156 152.152 64.065 145.743C79.6262 123.354 109.499 77.4684 109.499 55.1673C109.499 24.9977 85.0388 0.550003 54.8815 0.550003H54.8763ZM54.8763 76.6328C43.0241 76.6328 33.4104 67.0187 33.4104 55.1669C33.4104 43.3151 43.0245 33.701 54.8763 33.701C66.7281 33.701 76.3423 43.3151 76.3423 55.1669C76.3423 67.0187 66.7281 76.6328 54.8763 76.6328Z" fill="black"/>
</svg>
